# xmcd CD database file
#
# Track frame offsets:
#	150
#	10488
#	27027
#	47935
#	68505
#	86708
#	102425
#	117488
#	130990
#	147413
#	170048
#	187099
#	207543
#
# Disc length: 3099 seconds
#
# Revision: 3
# Processed by: cddbd v1.5.2PL0 Copyright (c) Steve Scherf et al.
# Submitted via: CDex 1.50
#
DISCID=c60c190d
DTITLE=Patricia Kaas - Kabaret
DYEAR=2009
DGENRE=Chanson
TTITLE0=Addicte aux Heroines
TTITLE1=Das Glück kennt nur Minuten
TTITLE2=Le jour se leve
TTITLE3=Une Derniere fois
TTITLE4=Kabaret
TTITLE5=Wo sind die Clowns
TTITLE6=Falling in love again
TTITLE7=Pigalle
TTITLE8=Alone
TTITLE9=Je t'aime encore
TTITLE10=Et s'il fallait le faire
TTITLE11=Mon Piano rouge
TTITLE12=September Song
EXTD=YEAR: 2009
EXTT0=
EXTT1=
EXTT2=
EXTT3=
EXTT4=
EXTT5=
EXTT6=
EXTT7=
EXTT8=
EXTT9=
EXTT10=
EXTT11=
EXTT12=
PLAYORDER=
